<svg version="1" xmlns="http://www.w3.org/2000/svg" width="682.667" height="682.667" viewBox="0 0 512.000000 512.000000">
  <path fill="currentColor" d="M325.3 30.5c-5 2.2-5.8 3.2-5.4 6.2.1.7 9.9 22.3 21.7 48l21.5 46.8-2.3 1.5c-1.3.8-4.5 3.6-7.3 6.3l-5 5-96.5.2c-53.1.1-107.7.7-121.5 1.3-72.2 3.3-94.2 4.5-96.5 5.6-2.2 1-2.6 1.9-3.2 8.1-1.2 13.1-2.8 40.9-3.9 71.5-1.3 34.2-.6 143.4 1 172 2.5 42.8 3.3 52.5 4.5 53.8 1.2 1.2 22.1 3.1 34.9 3.2H72v12c0 10.8.2 12 1.9 13 2.7 1.4 357.5 1.4 360.2 0 1.7-1 1.9-2.2 1.9-13v-12h4.8c12.7-.1 33.6-2 34.8-3.2 2.8-2.9 6.4-89.5 6.4-154.3 0-68.5-3.5-147.3-6.6-150.5-1.1-1.2-7.4-1.8-29.3-3l-27.8-1.5-4.6-5.7-4.6-5.7 38.4-48c21.2-26.5 38.5-49 38.5-50 0-2.5-8.3-9.4-10.7-8.9-1 .2-19.5 22.3-41.1 49.3l-39.2 49-7.8-.3c-4.2-.2-8-.7-8.3-1-.4-.4-10.4-22.1-22.4-48.2-19.5-42.4-23.4-50.2-25.4-49.9-.3 0-3 1.1-5.8 2.4zm-66.3 164c20.3.6 46 2.5 71 5.1 17.2 1.8 20 2.8 24.2 8.5 1.8 2.4 4.7 18.4 3.5 19.5-.2.3-2.4-.1-4.8-.7-3-.8-19.5-1.3-51.6-1.6l-47.3-.4v166.4l48.3-.6c26.5-.4 49.7-1 51.5-1.3l3.2-.6v4.2c0 5.7-2.6 10.7-7 13.6-3.1 2.1-6.1 2.8-16.6 3.9-77 8.5-156.8 8.5-233.7 0-20.8-2.3-22.3-3.8-24.4-26.4l-1.5-15.6 2.7-7.8 2.8-7.7h67.4l7 18.7 7.1 18.8 18.1.3 18.1.2-1.3-3.2c-.7-1.8-15.7-39.2-33.2-83.1L130.6 225H94.5l-11 28.8C76.1 273 72.4 281.7 72.1 280c-.4-3.2 1.7-39.7 3.4-56.3 1.9-19.9 3.8-21.6 27.2-24 29.7-3.1 54.8-4.9 81.8-5.6 26.2-.8 35.8-.7 74.5.4zM448.5 252v3.5l-27.2.3-27.3.2v-8l27.3.2 27.2.3v3.5zm-105.3 2.8c6.7 3.3 9.3 7.9 9.3 16.3s-3.1 13.5-10.2 17c-4.6 2.3-5.8 2.4-30 2.7l-25.3.4v-39.3l25.8.3c24.5.3 25.9.4 30.4 2.6zm-218.9 39.7l11.3 30-22.5.3c-12.3.1-22.6 0-22.8-.2-.3-.2 4.3-13.4 10-29.3 12.7-34.9 12-32.9 12.4-31.7.2.5 5.5 14.4 11.6 30.9zm324.2-18v4l-27.2.3-27.3.2v-3.8c0-2.1.3-4.2.7-4.5.4-.4 12.6-.6 27.2-.5l26.6.3v4zm.3 24.7c.3 3.2 0 3.8-2 4.3-1.3.3-13.5.4-27.3.3l-25-.3-.3-4.3-.3-4.2 27.3.2 27.3.3.3 3.7zM344 320.5c6.6 2.1 12.3 7.4 13.9 13 3.4 12.2-1 22.5-11.4 27.2-3.4 1.5-7.8 1.8-31.7 2.1l-27.8.4v-45.5l25.8.6c20.1.4 26.9.9 31.2 2.2zm103.8 1.4c.8.5 1.2 2.2 1 4.2l-.3 3.4-27.2.3-27.3.2v-3.8c0-2.1.3-4.2.7-4.5.9-1 51.6-.8 53.1.2zm.7 28.6v4h-54l-.3-4.3-.3-4.2 27.3.2 27.3.3v4z"/><path d="M184.3 208.1c-2.2 2.2-1.6 5.8 1 6.3 14.6 3 19.4 5.9 23.6 14.1l2.6 4.9.3 34.3.3 34.3h-5.5c-4.5 0-5.7.4-6.6 2-.8 1.4-.8 2.6 0 4 .9 1.6 2.1 2 6.6 2h5.5l-.3 34.3-.3 34.3-2.6 4.9c-4.2 8.2-9 11.1-23.6 14.1-1.6.3-2.3 1.2-2.3 2.8 0 3.7 2.3 4.9 7.7 4.2 8.7-1.3 17.1-6.4 23.1-14.1 2.2-2.7 2.4-2.8 3.4-1.2 4.3 7.8 15.9 14.8 24.9 15.1 3.9.1 5.4-.3 6.3-1.6 1.9-3-.5-5.2-6.3-6-6.9-1-12.1-3.8-16.3-8.8-5.5-6.4-5.8-8.4-5.8-44.8v-33.1l5.1-.3c5.9-.3 8.2-2.5 6.3-5.6-.8-1.2-2.7-1.8-6.3-2l-5.1-.3v-33.1c0-36.4.3-38.4 5.8-44.8 4.2-5 9.4-7.8 16.3-8.8 5.8-.8 8.2-3 6.3-6-.9-1.3-2.4-1.7-6.3-1.6-9 .3-20.6 7.3-24.9 15.1-1 1.6-1.2 1.5-3.4-1.2-3.8-5-8-8.4-13.4-11.1-6.1-3-14.3-4.2-16.1-2.3z"/>
</svg>